<?xml version="1.0" encoding="utf-8"?>
<!-- Generator: Adobe Illustrator 18.0.0, SVG Export Plug-In . SVG Version: 6.00 Build 0)  -->
<!DOCTYPE svg PUBLIC "-//W3C//DTD SVG 1.1//EN" "http://www.w3.org/Graphics/SVG/1.1/DTD/svg11.dtd">
<svg version="1.1" xmlns="http://www.w3.org/2000/svg" xmlns:xlink="http://www.w3.org/1999/xlink" x="0px" y="0px"
	 viewBox="0 0 247.9 56.3" enable-background="new 0 0 247.9 56.3" xml:space="preserve">
<g id="_x31_" display="none">
</g>
<g id="_x32_" display="none">
</g>
<g id="_x33_">
	<g>
		<g>
			<g>
				<path fill="#FFFFFF" d="M65.1,40.8v-5.7c3.4,1.3,7.3,1.9,11.6,1.9c5.2,0,7.8-1.7,7.8-5.2c0-2.5-1.6-3.8-4.8-3.8h-5.3
					c-7,0-10.5-3.2-10.5-9.5c0-7,5-10.5,14.9-10.5c3.8,0,7.4,0.6,10.9,1.7v5.7c-3.4-1.3-7-1.9-10.9-1.9c-5.7,0-8.6,1.7-8.6,5
					c0,2.5,1.4,3.8,4.2,3.8h5.3c7.4,0,11.1,3.2,11.1,9.5c0,7.2-4.7,10.7-14.2,10.7C72.3,42.5,68.5,41.9,65.1,40.8z"/>
				<path fill="#FFFFFF" d="M119.6,17.2v25h-4.9l-0.8-3.2c-2.9,2.1-5.9,3.2-9.2,3.2c-5.1,0-7.7-3-7.7-9.1v-16h6.3V33
					c0,2.8,1.2,4.2,3.6,4.2c2.1,0,4.1-0.8,6.3-2.5V17.2H119.6z"/>
				<path fill="#FFFFFF" d="M127,18.2c3.3-0.7,6.8-1,10.5-1c8.5,0,12.8,4,12.8,11.9c0,8.8-4,13.1-11.9,13.1c-1.7,0-3.4-0.4-5.1-1.2
					v10.3H127V18.2z M133.4,35.7c1.6,0.9,3.3,1.3,5.1,1.3c3.8,0,5.7-2.6,5.7-7.9c0-4.5-2.1-6.8-6.3-6.8c-1.8,0-3.3,0.1-4.5,0.3V35.7
					z"/>
				<path fill="#FFFFFF" d="M162.9,8.1v34.1h-6.3V8.1H162.9z"/>
				<path fill="#FFFFFF" d="M176.7,8.1v5h-6.3v-5H176.7z M176.7,17.2v25h-6.3v-25H176.7z"/>
				<g>
					<g>
						<path fill="#F18F01" d="M187.9,37.8v4.4h-4.4v-4.4H187.9z"/>
					</g>
				</g>
				<g>
					<g>
						<path fill="#F18F01" d="M216.6,40.7c-3,1-6.8,1.5-11.2,1.5c-7.5,0-11.2-4.3-11.2-13c0-8,4-12,11.9-12c2.2,0,4.2,0.4,6.1,1.2
							V8.1h4.4V40.7z M212.2,22.3c-1.8-0.9-3.8-1.3-6.1-1.3c-5,0-7.6,2.7-7.6,8c0,6.3,2.5,9.5,7.6,9.5c2.3,0,4.3-0.3,6.1-0.9V22.3z"
							/>
					</g>
				</g>
				<g>
					<g>
						<path fill="#F18F01" d="M224,29.7c0-8.3,4-12.5,11.9-12.5c8,0,11.9,4.2,11.9,12.5c0,8.3-4,12.5-11.9,12.5
							C228,42.2,224,38,224,29.7z M235.9,38.6c5,0,7.5-3,7.5-9c0-5.9-2.5-8.9-7.5-8.9c-5,0-7.5,3-7.5,8.9
							C228.4,35.6,230.9,38.6,235.9,38.6z"/>
					</g>
				</g>
			</g>
			<g>
				<path fill="#FFFFFF" d="M140.7,50.5c-0.6,0.2-1.1,0.3-1.7,0.3c-2.1,0-3-1-2.5-3.1c0.4-2,1.7-3,3.8-3c0.6,0,1.2,0.1,1.6,0.3
					l-0.1,0.7c-0.5-0.2-1-0.3-1.5-0.3c-1.6,0-2.6,0.8-2.9,2.3c-0.3,1.7,0.3,2.5,2,2.5c0.5,0,1.1-0.1,1.7-0.3L140.7,50.5z"/>
				<path fill="#FFFFFF" d="M142.3,48.5c0.3-1.5,1.1-2.2,2.5-2.2c1.4,0,1.9,0.7,1.6,2.2c-0.3,1.5-1.1,2.2-2.5,2.2
					C142.5,50.7,142,50,142.3,48.5z M144,50.1c0.8,0,1.4-0.5,1.6-1.6c0.2-1-0.1-1.6-0.9-1.6c-0.8,0-1.4,0.5-1.6,1.6
					C142.9,49.6,143.2,50.1,144,50.1z"/>
				<path fill="#FFFFFF" d="M147.2,50.7l0.9-4.4h0.7l-0.2,1.3c0.5-0.9,1.2-1.3,2-1.3c0.7,0,1,0.4,0.8,1.3c0.5-0.9,1.2-1.3,2-1.3
					c0.7,0,1,0.5,0.8,1.4l-0.6,3h-0.8l0.6-3c0.1-0.5-0.1-0.8-0.5-0.8c-0.6,0-1.1,0.5-1.7,1.4l-0.5,2.4H150l0.6-3
					c0.1-0.5,0-0.8-0.5-0.8c-0.6,0-1.1,0.5-1.7,1.4l-0.5,2.4H147.2z"/>
				<path fill="#FFFFFF" d="M156.6,47.3c0.5-0.7,1-1.1,1.7-1.1c1,0,1.4,0.7,1.1,2c-0.3,1.6-1.2,2.4-2.7,2.4c-0.3,0-0.6,0-0.8,0
					l-0.3,1.6h-0.8l1.2-6h0.7L156.6,47.3z M156.4,48l-0.4,1.9c0.1,0.1,0.4,0.1,0.7,0.1c1,0,1.6-0.6,1.8-1.7c0.2-0.9,0-1.4-0.6-1.4
					C157.4,47,156.9,47.3,156.4,48z"/>
				<path fill="#FFFFFF" d="M160.2,50.7l0.9-4.4h0.7l-0.2,1.4c0.5-0.9,1.1-1.4,1.8-1.4l-0.1,0.7c-0.7,0-1.3,0.5-1.8,1.4l-0.5,2.4
					H160.2z"/>
				<path fill="#FFFFFF" d="M167.1,50.7h-0.7l0.1-1.1c-0.5,0.7-1,1.1-1.7,1.1c-1,0-1.4-0.7-1.1-2.2c0.3-1.5,1.2-2.3,2.7-2.3
					c0.6,0,1.1,0.1,1.5,0.2L167.1,50.7z M167,47c-0.1-0.1-0.4-0.1-0.8-0.1c-0.9,0-1.5,0.5-1.7,1.6c-0.2,1,0,1.5,0.6,1.5
					c0.6,0,1.1-0.4,1.6-1.1L167,47z"/>
				<path fill="#FFFFFF" d="M172.6,46.3h1.4l-0.1,0.6h-1.4l-0.7,3.5c-0.2,0.9-0.5,1.6-1.1,2l-0.6-0.4c0.4-0.4,0.7-0.9,0.8-1.6
					l0.9-4.3c0.2-1.1,0.9-1.6,2.1-1.6c0.4,0,0.7,0.1,1,0.2l-0.1,0.6c-0.3-0.1-0.6-0.2-1-0.2c-0.6,0-1,0.3-1.1,0.9L172.6,46.3z"/>
				<path fill="#FFFFFF" d="M177.6,50.7h-0.7l0.1-1.1c-0.5,0.7-1,1.1-1.7,1.1c-1,0-1.4-0.7-1.1-2.2c0.3-1.5,1.2-2.3,2.7-2.3
					c0.6,0,1.1,0.1,1.5,0.2L177.6,50.7z M177.5,47c-0.1-0.1-0.4-0.1-0.8-0.1c-0.9,0-1.5,0.5-1.7,1.6c-0.2,1,0,1.5,0.6,1.5
					c0.6,0,1.1-0.4,1.6-1.1L177.5,47z M177.2,44.7h1l-1.2,1h-0.7L177.2,44.7z"/>
				<path fill="#FFFFFF" d="M182.3,50.2c-0.4,0.4-1,0.5-1.5,0.5c-1.2,0-1.7-0.8-1.4-2.3c0.3-1.5,1.1-2.2,2.5-2.2
					c0.4,0,0.8,0,1.2,0.1l-0.1,0.6c-0.3-0.1-0.7-0.1-1.2-0.1c-0.9,0-1.4,0.5-1.6,1.5c-0.2,1.1,0,1.6,0.8,1.6c0.6,0,1.1-0.2,1.5-0.5
					L182.3,50.2z"/>
				<path fill="#FFFFFF" d="M185.2,46.3l-0.9,4.4h-0.8l0.9-4.4H185.2z M185.5,44.7l-0.1,0.7h-0.8l0.1-0.7H185.5z"/>
				<path fill="#FFFFFF" d="M188,44.7l-1.2,6H186l1.2-6H188z"/>
				<path fill="#FFFFFF" d="M189.4,49.9l-1,1.8h-0.8l1-1.8H189.4z"/>
				<path fill="#FFFFFF" d="M192.8,46.3h0.8l0.6,3.5l2-3.5h0.8l-2.7,4.4h-0.7L192.8,46.3z"/>
				<path fill="#FFFFFF" d="M201.3,47.6c-0.2,0.8-0.8,1.2-1.8,1.2H198c-0.2,0.9,0.2,1.3,1,1.3c0.6,0,1.2-0.2,1.7-0.5l-0.1,0.6
					c-0.5,0.4-1,0.5-1.7,0.5c-1.4,0-1.9-0.8-1.6-2.3c0.3-1.4,1.1-2.2,2.5-2.2C200.9,46.3,201.4,46.7,201.3,47.6z M198.2,48.1h1.4
					c0.5,0,0.8-0.2,0.9-0.6c0.1-0.4-0.2-0.6-0.8-0.6C198.9,46.9,198.4,47.3,198.2,48.1z"/>
				<path fill="#FFFFFF" d="M201.9,50.7l0.9-4.4h0.7l-0.2,1.4c0.6-0.9,1.3-1.4,2.1-1.4s1.1,0.5,1,1.4l-0.6,3H205l0.6-3
					c0.1-0.5-0.1-0.8-0.6-0.8c-0.6,0-1.2,0.5-1.8,1.4l-0.5,2.4H201.9z"/>
				<path fill="#FFFFFF" d="M210.8,50.7h-0.7l0.1-1.1c-0.5,0.7-1,1.1-1.7,1.1c-1,0-1.4-0.7-1.1-2.2c0.3-1.5,1.2-2.3,2.7-2.3
					c0.3,0,0.5,0,0.8,0l0.3-1.6h0.8L210.8,50.7z M210.8,47c-0.1-0.1-0.4-0.1-0.8-0.1c-0.9,0-1.5,0.5-1.7,1.6c-0.2,1,0,1.5,0.6,1.5
					c0.6,0,1.1-0.4,1.6-1.1L210.8,47z"/>
				<path fill="#FFFFFF" d="M216.6,47.6c-0.2,0.8-0.8,1.2-1.8,1.2h-1.4c-0.2,0.9,0.2,1.3,1,1.3c0.6,0,1.2-0.2,1.7-0.5l-0.1,0.6
					c-0.5,0.4-1,0.5-1.7,0.5c-1.4,0-1.9-0.8-1.6-2.3c0.3-1.4,1.1-2.2,2.5-2.2C216.2,46.3,216.7,46.7,216.6,47.6z M213.5,48.1h1.4
					c0.5,0,0.8-0.2,0.9-0.6c0.1-0.4-0.2-0.6-0.8-0.6C214.2,46.9,213.7,47.3,213.5,48.1z"/>
				<path fill="#FFFFFF" d="M219.5,50.5l0.1-0.7c0.5,0.2,1,0.3,1.5,0.3c0.7,0,1.1-0.2,1.2-0.6c0.1-0.4-0.1-0.6-0.6-0.6h-0.6
					c-1,0-1.3-0.4-1.2-1.3c0.2-0.8,0.9-1.3,2.1-1.3c0.5,0,1,0.1,1.5,0.2l-0.1,0.7c-0.5-0.2-1-0.3-1.5-0.3c-0.7,0-1.1,0.2-1.2,0.6
					c-0.1,0.4,0.1,0.6,0.6,0.6h0.6c1,0,1.4,0.4,1.3,1.3c-0.2,0.8-0.9,1.3-2.1,1.3C220.5,50.7,220,50.7,219.5,50.5z"/>
				<path fill="#FFFFFF" d="M228.4,47.6c-0.2,0.8-0.8,1.2-1.8,1.2h-1.4c-0.2,0.9,0.2,1.3,1,1.3c0.6,0,1.2-0.2,1.7-0.5l-0.1,0.6
					c-0.5,0.4-1,0.5-1.7,0.5c-1.4,0-1.9-0.8-1.6-2.3c0.3-1.4,1.1-2.2,2.5-2.2C228,46.3,228.5,46.7,228.4,47.6z M225.2,48.1h1.4
					c0.5,0,0.8-0.2,0.9-0.6c0.1-0.4-0.2-0.6-0.8-0.6C226,46.9,225.5,47.3,225.2,48.1z"/>
				<path fill="#FFFFFF" d="M232.6,50.7c-0.2,1.1-1,1.6-2.4,1.6c-0.5,0-1-0.1-1.4-0.2l0.1-0.6c0.4,0.1,0.9,0.2,1.4,0.2
					c0.8,0,1.3-0.3,1.4-1l0.2-1.1c-0.5,0.7-1,1.1-1.7,1.1c-1,0-1.4-0.7-1.1-2.2c0.3-1.5,1.2-2.3,2.7-2.3c0.6,0,1.1,0.1,1.5,0.2
					L232.6,50.7z M232.5,47c-0.1-0.1-0.4-0.1-0.8-0.1c-0.9,0-1.5,0.5-1.7,1.6c-0.2,1,0,1.5,0.6,1.5c0.6,0,1.1-0.4,1.6-1.1L232.5,47z
					"/>
				<path fill="#FFFFFF" d="M238.8,46.3l-0.9,4.4h-0.7l0.2-1.4c-0.6,0.9-1.3,1.4-2.1,1.4s-1.1-0.5-1-1.4l0.6-3h0.8l-0.6,3
					c-0.1,0.5,0.1,0.8,0.6,0.8c0.6,0,1.2-0.5,1.8-1.4l0.5-2.4H238.8z"/>
				<path fill="#FFFFFF" d="M239.5,50.7l0.9-4.4h0.7l-0.2,1.4c0.5-0.9,1.1-1.4,1.8-1.4l-0.1,0.7c-0.7,0-1.3,0.5-1.8,1.4l-0.5,2.4
					H239.5z"/>
				<path fill="#FFFFFF" d="M242.9,48.5c0.3-1.5,1.1-2.2,2.5-2.2c1.4,0,1.9,0.7,1.6,2.2c-0.3,1.5-1.1,2.2-2.5,2.2
					C243.2,50.7,242.7,50,242.9,48.5z M244.7,50.1c0.8,0,1.4-0.5,1.6-1.6c0.2-1-0.1-1.6-0.9-1.6c-0.8,0-1.4,0.5-1.6,1.6
					C243.5,49.6,243.8,50.1,244.7,50.1z"/>
			</g>
		</g>
		<g>
			<circle id="XMLID_30_" fill="#4476DA" cx="28.2" cy="28.2" r="28.2"/>
			<g id="XMLID_1_">
				<path id="XMLID_22_" fill="#FFFFFF" d="M24.2,33.7c-1.3-0.8-2.7-1.4-4-2.1c-3.1-1.7-4.9-4.3-5.1-7.8c-0.2-3.6,1.3-6.5,4.2-8.5
					c1.2-0.8,2.5-1.4,3.8-2.1c0,0.3-0.2,0.4-0.4,0.6c-1.9,2.3-1.3,5.6,1.3,7.1c1.3,0.7,2.7,1.4,4,2.1c0.5,0.3,0.9,0.6,1.5,0.7
					c0.1,0.3,0.3,0.3,0.5,0.4c1.1,0.6,2.3,1.2,3.4,1.8c3.4,1.8,5.2,4.6,5.3,8.4c0.1,3.8-1.8,6.7-5.1,8.6c-0.9,0.5-1.9,1-2.9,1.5
					c0-0.3,0.2-0.5,0.4-0.7c1.5-1.9,1.2-4.6-0.5-6.2C30,36.6,29,36.2,28,35.7C26.8,35,25.5,34.3,24.2,33.7z"/>
				<path id="XMLID_21_" fill="#DDDDDD" d="M23.9,12.8c1.6-0.9,3.2-1.8,4.9-2.6c0.5-0.2,0.5-0.4,0.2-0.8c-0.2-0.3-0.4-0.7-0.6-1
					c-0.2-0.4-0.4-0.8-0.1-1.2c0.3-0.4,0.7-0.3,1.1-0.2c1.8,0.3,3.5,0.7,5.2,1c2,0.4,4,0.8,6,1.2c1.5,0.3,2,1.2,1.4,2.6
					c-1.5,3.5-3,7-4.5,10.5c-0.1,0.1-0.1,0.3-0.2,0.4c-0.4,0.8-1.1,0.8-1.6,0c-0.3-0.5-0.5-1-0.8-1.4c-0.1-0.3-0.2-0.3-0.5-0.2
					c-0.4,0.2-0.8,0.4-1.2,0.6c-2.2-1.1-4.3-2.3-6.5-3.4c-0.9-0.5-1.8-1.2-2.5-2C23.7,15.1,23.5,14,23.9,12.8z"/>
				<path id="XMLID_20_" fill="#D0D1D2" d="M30,44.6c0.1-0.6,0.3-1.1,0.2-1.7c-0.4-1.5-1.5-2.5-2.7-3.3c-2-1.3-4.1-2.3-6.2-3.4
					c-0.3-0.2-0.6-0.3-0.9-0.5c1.1-0.6,2.2-1.2,3.3-1.8c0.2-0.1,0.4-0.1,0.5-0.3c1.3,0.6,2.6,1.3,3.9,2c0.9,0.5,1.9,0.9,2.7,1.6
					c1.8,1.6,2,4.3,0.5,6.2c-0.2,0.2-0.4,0.4-0.4,0.7C30.6,44.4,30.3,44.5,30,44.6z"/>
				<path id="XMLID_19_" fill="#D0D1D2" d="M23.9,12.8c-0.4,1.2-0.1,2.4,0.7,3.3c0.7,0.8,1.5,1.5,2.5,2c2.1,1.2,4.3,2.3,6.5,3.4
					c-1.3,0.7-2.5,1.4-3.8,2c-0.6,0-1-0.4-1.5-0.7c-1.4-0.7-2.7-1.4-4-2.1c-2.6-1.4-3.2-4.8-1.3-7.1c0.1-0.2,0.4-0.3,0.4-0.6
					C23.4,13,23.6,12.8,23.9,12.8z"/>
				<path id="XMLID_18_" fill="#DDDDDD" d="M30.2,44.6c-1.6,0.9-3.2,1.8-4.9,2.6c-0.5,0.2-0.5,0.4-0.2,0.8c0.2,0.3,0.4,0.7,0.6,1
					c0.2,0.4,0.4,0.8,0.1,1.2c-0.3,0.4-0.7,0.3-1.1,0.2c-1.8-0.3-3.5-0.7-5.2-1c-2-0.4-4-0.8-6-1.2c-1.5-0.3-2-1.2-1.4-2.6
					c1.5-3.5,3-7,4.5-10.5c0.1-0.1,0.1-0.3,0.2-0.4c0.4-0.8,1.1-0.8,1.6,0c0.3,0.5,0.5,1,0.8,1.4c0.1,0.3,0.2,0.3,0.5,0.2
					c0.4-0.2,0.8-0.4,1.2-0.6c2.2,1.1,4.3,2.3,6.5,3.4c0.9,0.5,1.8,1.2,2.5,2C30.3,42.2,30.6,43.4,30.2,44.6z"/>
			</g>
		</g>
	</g>
</g>
</svg>
